PathFileType	4	(X/Y/Z)	/Users/itak/Documents/Research/Walk-IL/dataset/trc/00396_00012.trc
DataRate	CameraRate	NumFrames	NumMarkers	Units	OrigDataRate	OrigDataStartFrame	OrigNumFrames
100.000000	100.000000	4	53	mm	100.000000	0	582
Frame#	Time	RPSI			LPSI			L3			STRN			T10			C7			CLAV			RBAK			LBAK			LSHO			LUPA			LAEL			LAOL			LWTS			LWPS			LFRA			LIFD			LHPS			LHTS			RSHO			RUPA			RAEL			RAOL			RWTS			RWPS			RFRA			RIFD			RHTS			RHPS			RBHD			LFHD			RFHD			LBHD			LHIP			RASI			LASI			LKNE			LTHI			LANK			LTIP			LTOE			LMT1			LMT5			LHEE			RKNE			RTHI			RANK			RTIP			RTOE			RMT1			RMT5			RHEE			RHIP			
		X1	Y1	Z1	X2	Y2	Z2	X3	Y3	Z3	X4	Y4	Z4	X5	Y5	Z5	X6	Y6	Z6	X7	Y7	Z7	X8	Y8	Z8	X9	Y9	Z9	X10	Y10	Z10	X11	Y11	Z11	X12	Y12	Z12	X13	Y13	Z13	X14	Y14	Z14	X15	Y15	Z15	X16	Y16	Z16	X17	Y17	Z17	X18	Y18	Z18	X19	Y19	Z19	X20	Y20	Z20	X21	Y21	Z21	X22	Y22	Z22	X23	Y23	Z23	X24	Y24	Z24	X25	Y25	Z25	X26	Y26	Z26	X27	Y27	Z27	X28	Y28	Z28	X29	Y29	Z29	X30	Y30	Z30	X31	Y31	Z31	X32	Y32	Z32	X33	Y33	Z33	X34	Y34	Z34	X35	Y35	Z35	X36	Y36	Z36	X37	Y37	Z37	X38	Y38	Z38	X39	Y39	Z39	X40	Y40	Z40	X41	Y41	Z41	X42	Y42	Z42	X43	Y43	Z43	X44	Y44	Z44	X45	Y45	Z45	X46	Y46	Z46	X47	Y47	Z47	X48	Y48	Z48	X49	Y49	Z49	X50	Y50	Z50	X51	Y51	Z51	X52	Y52	Z52	X53	Y53	Z53	

1	0	-15.13999080657959	986.9258422851562	1288.044677734375	-20.98191452026367	981.7566528320312	1155.222412109375	-19.13261032104492	1061.194213867188	1225.373657226562	219.2604217529297	1204.552734375	1232.229614257812	-24.25635719299316	1162.410034179688	1219.110717773438	17.43580627441406	1411.06201171875	1211.09521484375	169.7322998046875	1324.915649414062	1228.552978515625	-36.54311370849609	1266.65966796875	1275.703735351562	8.582847595214844	1375.188110351562	1106.1787109375	100.2217483520508	1384.89208984375	1062.594360351562	80.77583312988281	1269.207641601562	990.5640869140625	101.2470550537109	1070.250854492188	967.01611328125	34.20607757568359	1051.079833984375	1018.232788085938	193.1633605957031	861.7394409179688	1034.002319335938	157.2898712158203	843.8485717773438	962.10888671875	122.7755508422852	965.8040161132812	961.5160522460938	218.7825469970703	683.5499267578125	1024.634155273438	176.8049163818359	760.8653564453125	974.8294067382812	222.7467803955078	769.3326416015625	1018.202270507812	63.69585037231445	1386.787719726562	1373.200317382812	45.1728515625	1322.558227539062	1429.526611328125	45.83837127685547	1059.34521484375	1469.507202148438	28.4682445526123	1052.482666015625	1377.318115234375	178.5650177001953	844.6465454101562	1438.520629882812	136.6293640136719	831.8448486328125	1497.720092773438	72.50436401367188	993.1427001953125	1486.1533203125	185.0679016113281	672.7190551757812	1441.376220703125	203.0860748291016	741.5497436523438	1459.185791015625	145.4504547119141	744.668701171875	1499.088623046875	44.81803131103516	1590.365966796875	1297.694213867188	200.8664245605469	1604.88818359375	1174.74072265625	177.2513580322266	1608.590942382812	1295.490600585938	58.13908767700195	1580.596923828125	1137.099487304688	68.11105346679688	969.8307495117188	1042.609497070312	202.0799102783203	964.4541625976562	1345.678955078125	182.6807861328125	964.2603759765625	1083.760131835938	132.5888519287109	471.9651184082031	1065.944702148438	118.0767135620117	613.2699584960938	1053.493408203125	-10.10185146331787	39.49998474121094	1083.43505859375	56.7330207824707	245.4472351074219	1062.012573242188	199.6205139160156	52.52635192871094	1152.410400390625	138.6348724365234	70.08318328857422	1197.295288085938	117.3862228393555	41.05962371826172	1077.200927734375	-51.69417572021484	38.23136901855469	1138.811157226562	120.9424667358398	466.8338928222656	1354.24951171875	152.4153289794922	726.9896240234375	1389.506469726562	18.63648414611816	58.6363410949707	1320.420288085938	119.0900497436523	338.6539306640625	1334.586303710938	196.8081512451172	44.0503044128418	1258.1181640625	102.3447265625	22.13779258728027	1210.05322265625	102.658447265625	48.9656982421875	1325.597412109375	-56.14527130126953	44.22049331665039	1269.066528320312	65.60890197753906	958.3550415039062	1399.931884765625	
2	0.01	-14.79144954681396	986.40185546875	1288.31787109375	-20.67248153686523	981.02490234375	1155.491821289062	-18.62248229980469	1060.670654296875	1225.662109375	220.0000762939453	1204.159912109375	1232.51025390625	-23.99226188659668	1162.070922851562	1219.730224609375	18.09185600280762	1410.745849609375	1211.828735351562	170.4288330078125	1324.522216796875	1228.989868164062	-35.7966423034668	1266.349731445312	1276.354125976562	8.99089241027832	1374.905029296875	1106.940307617188	100.6034545898438	1384.590209960938	1063.290771484375	80.97190856933594	1268.94921875	991.1552734375	101.3418579101562	1070.01171875	967.0983276367188	34.42091751098633	1050.85791015625	1018.342407226562	193.4053039550781	861.5062255859375	1033.592529296875	157.46435546875	843.7681274414062	961.7000122070312	122.9124908447266	965.6586303710938	961.41455078125	219.147216796875	683.3677368164062	1023.869995117188	176.9929504394531	760.7093505859375	974.234130859375	223.0149230957031	769.157958984375	1017.576293945312	64.59819793701172	1386.359497070312	1373.846313476562	45.97226333618164	1322.182006835938	1430.12158203125	46.32437515258789	1058.930053710938	1470.28076171875	29.17439079284668	1052.001342773438	1378.011962890625	179.2415771484375	844.2828369140625	1439.525512695312	137.0490875244141	831.3082885742188	1498.435180664062	72.94667053222656	992.7401733398438	1486.989868164062	185.5761260986328	672.2120971679688	1441.934204101562	203.5034790039062	741.191650390625	1459.872802734375	145.8231658935547	744.0365600585938	1499.60400390625	47.15792846679688	1590.5849609375	1298.6796875	201.4728240966797	1603.83154296875	1173.507080078125	179.6912078857422	1608.161743164062	1294.500366210938	58.12649536132812	1580.191284179688	1137.96484375	68.20582580566406	969.3414916992188	1042.628295898438	202.7014312744141	964.1080322265625	1345.715698242188	182.8487396240234	963.8938598632812	1083.88916015625	135.7172698974609	471.5693664550781	1066.805419921875	120.509651184082	612.6217651367188	1054.26220703125	-10.04733943939209	39.74106216430664	1083.198852539062	57.84946441650391	245.7769927978516	1062.2578125	199.4930419921875	52.56500625610352	1152.2197265625	138.6405029296875	70.32748413085938	1197.117797851562	117.3543014526367	40.87862014770508	1076.920043945312	-51.63164138793945	38.71685409545898	1138.536743164062	121.6945953369141	466.5557250976562	1354.418334960938	152.9656066894531	726.7546997070312	1389.7373046875	18.54460525512695	58.54470825195312	1320.465454101562	119.567268371582	338.2953491210938	1334.743408203125	196.6685943603516	44.26406097412109	1258.136474609375	102.0687713623047	22.09828567504883	1210.023803710938	102.516975402832	48.99540328979492	1325.626220703125	-56.29167175292969	44.15205383300781	1269.121337890625	66.86075592041016	957.63623046875	1400.366333007812	
3	0.02	-14.25632286071777	985.7916259765625	1288.630737304688	-20.27058601379395	980.0966796875	1155.820434570312	-17.98422813415527	1060.035400390625	1226.015991210938	220.9416351318359	1203.652099609375	1232.780395507812	-23.64314651489258	1161.6640625	1220.486572265625	18.98348999023438	1410.3564453125	1212.750610351562	171.3323974609375	1324.017700195312	1229.486938476562	-34.78163146972656	1265.931396484375	1277.17919921875	9.526124954223633	1374.578979492188	1107.886840820312	101.0751495361328	1384.218627929688	1064.105712890625	81.15371704101562	1268.634033203125	991.8829956054688	101.4527435302734	1069.742553710938	967.2174682617188	34.65505218505859	1050.56298828125	1018.497192382812	193.6939239501953	861.2259521484375	1033.056640625	157.680908203125	843.6860961914062	961.1605834960938	123.0703506469727	965.4913330078125	961.2807006835938	219.5718383789062	683.1581420898438	1022.839660644531	177.2417144775391	760.5452880859375	973.4478149414062	223.34814453125	768.9595336914062	1016.758544921875	65.84068298339844	1385.801879882812	1374.640869140625	47.13160705566406	1321.683471679688	1430.87158203125	47.09397506713867	1058.3935546875	1471.281494140625	30.16614723205566	1051.348510742188	1378.947875976562	180.2045440673828	843.79833984375	1440.83056640625	137.6535186767578	830.6104125976562	1499.37841796875	73.65018463134766	992.2322387695312	1488.06640625	186.2499084472656	671.5870361328125	1442.61474609375	204.1249237060547	740.6458129882812	1460.798583984375	146.3489379882812	743.2318115234375	1500.2822265625	50.19431686401367	1590.832275390625	1299.915893554688	202.2596282958984	1602.513305664062	1171.95361328125	182.79248046875	1607.576538085938	1293.232421875	58.17091369628906	1579.697265625	1139.065307617188	68.31253051757812	968.686767578125	1042.64599609375	203.542236328125	963.6897583007812	1345.719116210938	183.0396118164062	963.3945922851562	1084.00634765625	139.8775787353516	471.1070556640625	1067.855102539062	123.7431106567383	611.834228515625	1055.2080078125	-9.960511207580566	40.25149917602539	1082.920776367188	59.43878936767578	246.2756652832031	1062.56005859375	199.3641815185547	52.5560188293457	1151.995971679688	138.6686553955078	70.65336608886719	1196.895263671875	117.3432388305664	40.69933700561523	1076.597045898438	-51.53828811645508	39.53285598754883	1138.209838867188	122.6291351318359	466.2070007324219	1354.679565429688	153.7332153320312	726.48388671875	1390.009765625	18.44093894958496	58.44240188598633	1320.532470703125	120.1835784912109	337.8544311523438	1334.971435546875	196.5058135986328	44.50801849365234	1258.189331054688	101.778694152832	22.04030227661133	1210.0087890625	102.3447113037109	49.01192855834961	1325.679077148438	-56.45686721801758	44.05045318603516	1269.200805664062	68.42048645019531	956.8121948242188	1400.861083984375	
4	0.03	-13.52416133880615	985.1408081054688	1288.959838867188	-19.79351997375488	979.004638671875	1156.185424804688	-17.23788452148438	1059.333129882812	1226.432006835938	222.0571899414062	1203.044555664062	1232.986938476562	-23.20103645324707	1161.224487304688	1221.346801757812	20.10761833190918	1409.917114257812	1213.823120117188	172.4263153076172	1323.4208984375	1229.994262695312	-33.50216674804688	1265.416381835938	1278.14697265625	10.17935276031494	1374.238525390625	1108.975463867188	101.6159362792969	1383.801635742188	1064.980834960938	81.29263305664062	1268.28271484375	992.7068481445312	101.5642013549805	1069.468383789062	967.3718872070312	34.88628387451172	1050.204711914062	1018.703308105469	194.0174102783203	860.9228515625	1032.404174804688	157.9236755371094	843.6171264648438	960.5013427734375	123.2303848266602	965.3175659179688	961.1139526367188	220.0297698974609	682.9389038085938	1021.556274414062	177.5401306152344	760.3985595703125	972.4841918945312	223.7295379638672	768.755615234375	1015.763427734375	67.4287109375	1385.129272460938	1375.540771484375	48.68476867675781	1321.076416015625	1431.753784179688	48.19453048706055	1057.756225585938	1472.480712890625	31.45560455322266	1050.543823242188	1380.108764648438	181.4636688232422	843.19580078125	1442.396118164062	138.4630889892578	829.77197265625	1500.52978515625	74.66279602050781	991.639892578125	1489.3486328125	187.0840911865234	670.8649291992188	1443.3974609375	204.961181640625	739.9046020507812	1461.94677734375	147.0389404296875	742.2880249023438	1501.119750976562	53.85079193115234	1591.084716796875	1301.354370117188	203.2097015380859	1600.994873046875	1170.14599609375	186.4450225830078	1606.83837890625	1291.729370117188	58.30830764770508	1579.147827148438	1140.358764648438	68.42482757568359	967.8693237304688	1042.660278320312	204.5913696289062	963.2205810546875	1345.66845703125	183.2412414550781	962.7734985351562	1084.085815429688	145.0123901367188	470.6221008300781	1069.032958984375	127.7371826171875	610.963134765625	1056.276733398438	-9.831318855285645	41.1259651184082	1082.621948242188	61.53568649291992	246.9711151123047	1062.907836914062	199.2545776367188	52.47671890258789	1151.757934570312	138.7245788574219	71.05126190185547	1196.638793945312	117.3701629638672	40.55857467651367	1076.260375976562	-51.40134048461914	40.77370071411133	1137.855346679688	123.7098846435547	465.802734375	1355.03369140625	154.7084503173828	726.19580078125	1390.305541992188	18.33585548400879	58.34005737304688	1320.622802734375	120.9217681884766	337.3570251464844	1335.267456054688	196.332275390625	44.76364135742188	1258.284545898438	101.514778137207	21.96885108947754	1210.026123046875	102.1541900634766	49.00592803955078	1325.760620117188	-56.62509155273438	43.92141723632812	1269.307861328125	70.20590972900391	955.9691772460938	1401.365966796875	
